<svg width="28" height="28" viewBox="0 0 28 28" fill="none" xmlns="http://www.w3.org/2000/svg">
<path d="M19 20V18.6667C19 17.9594 18.6312 17.2811 17.9749 16.781C17.3185 16.281 16.4283 16 15.5 16H8.5C7.57174 16 6.6815 16.281 6.02513 16.781C5.36875 17.2811 5 17.9594 5 18.6667V20" stroke="#6EBE49" stroke-width="2" stroke-linecap="round" stroke-linejoin="round"/>
<path d="M12 12C13.6569 12 15 10.6569 15 9C15 7.34315 13.6569 6 12 6C10.3431 6 9 7.34315 9 9C9 10.6569 10.3431 12 12 12Z" stroke="#6EBE49" stroke-width="2" stroke-linecap="round" stroke-linejoin="round"/>
<path d="M21 7L24 10M24 10L21 13M24 10H18" stroke="#6EBE49" stroke-width="2" stroke-linecap="round" stroke-linejoin="round"/>
</svg>